<svg width="18" height="19" viewBox="0 0 18 19" fill="none" xmlns="http://www.w3.org/2000/svg">
<path d="M9 2C9.41421 2 9.75 2.33579 9.75 2.75V10.6893L11.4697 8.96967C11.7626 8.67678 12.2374 8.67678 12.5303 8.96967C12.8232 9.26256 12.8232 9.73744 12.5303 10.0303L9.53033 13.0303C9.23744 13.3232 8.76256 13.3232 8.46967 13.0303L5.46967 10.0303C5.17678 9.73744 5.17678 9.26256 5.46967 8.96967C5.76256 8.67678 6.23744 8.67678 6.53033 8.96967L8.25 10.6893V2.75C8.25 2.33579 8.58579 2 9 2ZM3.75 13.25C4.16421 13.25 4.5 13.5858 4.5 14V15.5H13.5V14C13.5 13.5858 13.8358 13.25 14.25 13.25C14.6642 13.25 15 13.5858 15 14V15.5C15 16.3284 14.3284 17 13.5 17H4.5C3.67157 17 3 16.3284 3 15.5V14C3 13.5858 3.33579 13.25 3.75 13.25Z" fill="#FF9828"/>
</svg>
