<svg width="20" height="20" viewBox="0 0 20 20" fill="none" xmlns="http://www.w3.org/2000/svg">
<path d="M17.5 6.06667V4.16667C17.5 3.25 16.75 2.5 15.8333 2.5H4.16667C3.72464 2.5 3.30072 2.67559 2.98816 2.98816C2.67559 3.30072 2.5 3.72464 2.5 4.16667V15.8333C2.5 16.2754 2.67559 16.6993 2.98816 17.0118C3.30072 17.3244 3.72464 17.5 4.16667 17.5H15.8333C16.75 17.5 17.5 16.75 17.5 15.8333V13.9333C17.7519 13.7879 17.9614 13.5791 18.1075 13.3276C18.2537 13.0762 18.3316 12.7909 18.3333 12.5V7.5C18.3316 7.20914 18.2537 6.92381 18.1075 6.67236C17.9614 6.42091 17.7519 6.21209 17.5 6.06667ZM16.6667 7.5V12.5H10.8333V7.5H16.6667ZM4.16667 15.8333V4.16667H15.8333V5.83333H10.8333C9.91667 5.83333 9.16667 6.58333 9.16667 7.5V12.5C9.16667 13.4167 9.91667 14.1667 10.8333 14.1667H15.8333V15.8333H4.16667Z" fill="white"/>
<path d="M13.3334 11.25C14.0237 11.25 14.5834 10.6904 14.5834 10C14.5834 9.30964 14.0237 8.75 13.3334 8.75C12.643 8.75 12.0834 9.30964 12.0834 10C12.0834 10.6904 12.643 11.25 13.3334 11.25Z" fill="white"/>
</svg>
