<svg width="40" height="40" viewBox="0 0 40 40" fill="none" xmlns="http://www.w3.org/2000/svg">
<path d="M39.9896 6.06882C39.9896 5.02607 39.7915 4.05631 39.2492 3.15954C38.0605 1.17831 36.3608 0.0104275 34.0042 0.0104275C24.6403 -7.76911e-10 15.2868 0.0104275 5.92284 0C4.317 0 2.98227 0.604797 1.84567 1.67883C0.771637 2.6903 0.104275 3.92075 0 5.43274C0 15.1616 0 24.8905 0 34.6194C0.114703 36.0375 0.740355 37.2263 1.72054 38.2273C2.72159 39.2492 3.94161 39.8749 5.38061 40C15.0782 40 24.7862 40 34.4838 40C34.9426 39.9166 35.4119 39.927 35.8603 39.7602C38.2795 38.8843 40.0104 36.5693 40 33.9625C39.9583 24.6611 39.9791 15.3597 39.9896 6.06882ZM37.6017 33.6392C37.6017 36.0063 35.9541 37.6538 33.5766 37.6538C24.5047 37.6538 15.4327 37.6538 6.35037 37.6538C3.98332 37.6538 2.33577 36.0063 2.32534 33.6392C2.32534 26.6945 2.32534 19.7497 2.31491 12.8154C2.31491 12.4922 2.39833 12.4192 2.72159 12.4192C8.46715 12.4296 14.2127 12.4296 19.9583 12.4296C25.7039 12.4296 31.4494 12.4296 37.195 12.4192C37.5182 12.4192 37.6017 12.4922 37.6017 12.8154C37.6017 19.7497 37.6017 26.6945 37.6017 33.6392ZM37.2054 10.0834C31.4599 10.073 25.7143 10.073 19.9687 10.073C14.2336 10.073 8.49844 10.073 2.77372 10.0834C2.40876 10.0834 2.32534 9.98957 2.33577 9.63504C2.35662 8.52972 2.33577 7.4244 2.34619 6.31908C2.35662 4.05631 4.02503 2.3879 6.2878 2.37748C15.4119 2.37748 24.536 2.37748 33.6705 2.37748C35.9333 2.37748 37.6017 4.04588 37.6121 6.31908C37.6225 7.43483 37.6017 8.55057 37.6225 9.67675C37.6225 10.0104 37.5287 10.0834 37.2054 10.0834Z" fill="url(#paint0_linear_29_536)"/>
<path d="M19.9687 22.2211C20.9802 22.2523 21.877 22.5756 22.6173 23.2847C23.1178 23.7643 23.1595 24.4734 22.7216 24.9635C22.3045 25.4327 21.5954 25.4745 21.074 25.0469C20.2815 24.4004 19.6767 24.4004 18.8843 25.0365C18.3316 25.4745 17.6538 25.4327 17.2159 24.9322C16.7883 24.4317 16.83 23.7748 17.3306 23.2951C18.0605 22.586 18.9572 22.2419 19.9687 22.2211Z" fill="url(#paint1_linear_29_536)"/>
<path d="M29.8957 19.3848C29.8957 19.6455 29.9166 19.9062 29.8957 20.1668C29.8332 20.7508 29.3431 21.1887 28.7591 21.1887C28.196 21.1992 27.6851 20.7925 27.6121 20.2294C27.5391 19.6663 27.5287 19.0928 27.6121 18.5193C27.6955 17.9666 28.1752 17.5912 28.7487 17.6017C29.3326 17.6017 29.8123 17.9979 29.8853 18.5714C29.9166 18.8425 29.9166 19.1137 29.927 19.3848C29.9166 19.3848 29.9062 19.3848 29.8957 19.3848Z" fill="url(#paint2_linear_29_536)"/>
<path d="M10.0417 19.3952C10.0417 19.1345 10.0209 18.8738 10.0417 18.6131C10.1043 18.0188 10.5839 17.6017 11.1783 17.6017C11.7727 17.6017 12.2523 17.9979 12.3358 18.5923C12.3983 19.1241 12.3983 19.6559 12.3358 20.1877C12.2628 20.7716 11.7623 21.1992 11.1783 21.1887C10.5839 21.1887 10.0938 20.7404 10.0313 20.1356C10.0209 19.8853 10.0417 19.635 10.0417 19.3952Z" fill="url(#paint3_linear_29_536)"/>
<path d="M6.57977 7.50385C6.31909 7.50385 6.0584 7.5247 5.79771 7.50385C5.20334 7.44128 4.78624 6.96162 4.78624 6.36725C4.78624 5.77288 5.18248 5.29321 5.77685 5.20979C6.30866 5.14723 6.84046 5.14723 7.37227 5.20979C7.95621 5.28278 8.38374 5.78331 8.37331 6.36725C8.37331 6.96162 7.92493 7.45171 7.32013 7.51428C7.06987 7.5247 6.81961 7.50385 6.57977 7.50385Z" fill="url(#paint4_linear_29_536)"/>
<defs>
<linearGradient id="paint0_linear_29_536" x1="40" y1="-2.38419e-06" x2="-7.58434" y2="26.2533" gradientUnits="userSpaceOnUse">
<stop stop-color="#FFA23D"/>
<stop offset="1" stop-color="#A2BBFF"/>
</linearGradient>
<linearGradient id="paint1_linear_29_536" x1="40" y1="-2.38419e-06" x2="-7.58434" y2="26.2533" gradientUnits="userSpaceOnUse">
<stop stop-color="#FFA23D"/>
<stop offset="1" stop-color="#A2BBFF"/>
</linearGradient>
<linearGradient id="paint2_linear_29_536" x1="40" y1="-2.38419e-06" x2="-7.58434" y2="26.2533" gradientUnits="userSpaceOnUse">
<stop stop-color="#FFA23D"/>
<stop offset="1" stop-color="#A2BBFF"/>
</linearGradient>
<linearGradient id="paint3_linear_29_536" x1="40" y1="-2.38419e-06" x2="-7.58434" y2="26.2533" gradientUnits="userSpaceOnUse">
<stop stop-color="#FFA23D"/>
<stop offset="1" stop-color="#A2BBFF"/>
</linearGradient>
<linearGradient id="paint4_linear_29_536" x1="40" y1="-2.38419e-06" x2="-7.58434" y2="26.2533" gradientUnits="userSpaceOnUse">
<stop stop-color="#FFA23D"/>
<stop offset="1" stop-color="#A2BBFF"/>
</linearGradient>
</defs>
</svg>
