<svg width="80" height="45" viewBox="0 0 80 45" fill="none" xmlns="http://www.w3.org/2000/svg">
<path d="M74.3749 14.722L80 24.4593L50.382 41.5681C50.382 41.5681 32.2376 52.5238 19.2004 29.9219L28.43 24.6014C28.43 24.6014 34.4206 37.8519 44.8077 31.8308L74.3749 14.722Z" fill="white"/>
<path d="M5.62508 29.861L0 20.1237L30.2475 2.65958C30.2475 2.65958 48.3919 -8.30628 61.4291 14.2956L52.1995 19.616C52.1995 19.616 46.2089 6.4164 35.8218 12.3867C25.4347 18.357 5.62508 29.861 5.62508 29.861Z" fill="white"/>
<path d="M40.6143 29.6173C42.0762 29.6173 43.5054 29.1838 44.7209 28.3715C45.9365 27.5593 46.8839 26.4049 47.4434 25.0542C48.0029 23.7035 48.1493 22.2173 47.864 20.7834C47.5788 19.3495 46.8748 18.0325 45.8411 16.9987C44.8073 15.9649 43.4902 15.2609 42.0563 14.9757C40.6225 14.6905 39.1362 14.8369 37.7856 15.3964C36.4349 15.9558 35.2804 16.9032 34.4682 18.1188C33.656 19.3344 33.2225 20.7635 33.2225 22.2255C33.2225 24.1859 34.0013 26.066 35.3875 27.4523C36.7737 28.8385 38.6538 29.6173 40.6143 29.6173V29.6173Z" fill="white"/>
<path d="M65.9982 11.4018C66.7614 11.4018 67.5073 11.1755 68.1418 10.7516C68.7763 10.3276 69.2709 9.72503 69.5629 9.02001C69.8549 8.31499 69.9313 7.5392 69.7825 6.79075C69.6336 6.0423 69.2661 5.35481 68.7265 4.81521C68.1869 4.27561 67.4994 3.90813 66.751 3.75926C66.0025 3.61038 65.2267 3.68679 64.5217 3.97882C63.8167 4.27085 63.2141 4.76539 62.7901 5.39989C62.3662 6.03439 62.1399 6.78037 62.1399 7.54348C62.1399 8.56678 62.5464 9.54817 63.27 10.2717C63.9936 10.9953 64.9749 11.4018 65.9982 11.4018Z" fill="white"/>
<path d="M74.3749 14.722L80 24.4593L50.382 41.5681C50.382 41.5681 32.2376 52.5238 19.2004 29.9219L28.43 24.6014C28.43 24.6014 34.4206 37.8519 44.8077 31.8308L74.3749 14.722Z" fill="white"/>
<path d="M5.62508 29.861L0 20.1237L30.2475 2.65958C30.2475 2.65958 48.3919 -8.30628 61.4291 14.2956L52.2097 19.616C52.2097 19.616 46.2089 6.4164 35.8218 12.3867C25.4347 18.357 5.62508 29.861 5.62508 29.861Z" fill="white"/>
<path d="M40.6143 29.6173C42.0762 29.6173 43.5054 29.1838 44.7209 28.3715C45.9365 27.5593 46.8839 26.4049 47.4434 25.0542C48.0029 23.7035 48.1493 22.2173 47.864 20.7834C47.5788 19.3495 46.8748 18.0325 45.8411 16.9987C44.8073 15.9649 43.4902 15.2609 42.0563 14.9757C40.6225 14.6905 39.1362 14.8369 37.7856 15.3964C36.4349 15.9558 35.2804 16.9032 34.4682 18.1188C33.656 19.3344 33.2225 20.7635 33.2225 22.2255C33.2225 24.1859 34.0013 26.066 35.3875 27.4523C36.7737 28.8385 38.6538 29.6173 40.6143 29.6173V29.6173Z" fill="#FF931E"/>
<path d="M14.4688 41.162C15.2344 41.164 15.9833 40.9388 16.6208 40.5149C17.2583 40.0911 17.7557 39.4876 18.0501 38.7809C18.3445 38.0742 18.4225 37.2961 18.2744 36.545C18.1263 35.7939 17.7586 35.1037 17.218 34.5616C16.6774 34.0196 15.9881 33.6501 15.2374 33.5C14.4867 33.3499 13.7084 33.426 13.0009 33.7185C12.2935 34.011 11.6887 34.5068 11.2631 35.1432C10.8376 35.7796 10.6105 36.5279 10.6105 37.2935C10.6105 38.3177 11.0167 39.3001 11.7399 40.0253C12.4632 40.7505 13.4446 41.1593 14.4688 41.162V41.162Z" fill="white"/>
<path d="M65.9982 11.4018C66.7614 11.4018 67.5073 11.1755 68.1418 10.7516C68.7763 10.3276 69.2709 9.72503 69.5629 9.02001C69.8549 8.31499 69.9313 7.5392 69.7825 6.79075C69.6336 6.0423 69.2661 5.35481 68.7265 4.81521C68.1869 4.27561 67.4994 3.90813 66.751 3.75926C66.0025 3.61038 65.2267 3.68679 64.5217 3.97882C63.8167 4.27085 63.2141 4.76539 62.7901 5.39989C62.3662 6.03439 62.1399 6.78037 62.1399 7.54348C62.1399 8.56678 62.5464 9.54817 63.27 10.2717C63.9936 10.9953 64.9749 11.4018 65.9982 11.4018Z" fill="white"/>
</svg>
