<svg width="171" height="25" viewBox="0 0 171 25" fill="none" xmlns="http://www.w3.org/2000/svg">
<path d="M110.633 17.8006C110.652 18.4792 110.511 19.1528 110.221 19.7666C109.931 20.3804 109.5 20.9171 108.964 21.3329C108.43 21.7368 107.826 22.0403 107.184 22.2285C105.811 22.629 104.351 22.629 102.978 22.2285C102.34 22.047 101.743 21.7428 101.22 21.3329C100.713 20.9349 100.302 20.4271 100.019 19.8477C99.7112 19.2099 99.5587 18.5085 99.5738 17.8006V14.029C99.5597 13.3181 99.7162 12.6143 100.03 11.9763C100.321 11.3926 100.735 10.8784 101.243 10.4688C101.768 10.0562 102.366 9.74492 103.006 9.55094C103.688 9.33428 104.399 9.22726 105.114 9.23386C105.853 9.22485 106.589 9.33184 107.295 9.55094C107.927 9.74867 108.516 10.0638 109.031 10.4799C109.53 10.8903 109.931 11.4073 110.204 11.993C110.494 12.6361 110.638 13.335 110.627 14.0401L110.633 17.8006ZM107.851 14.5129C107.867 14.0801 107.781 13.6496 107.601 13.2558C107.447 12.9415 107.227 12.6644 106.956 12.4436C106.693 12.2323 106.39 12.0771 106.066 11.9874C105.431 11.7939 104.753 11.7939 104.119 11.9874C103.793 12.0781 103.488 12.2332 103.223 12.4436C102.948 12.6679 102.728 12.9512 102.578 13.2724C102.401 13.6673 102.315 14.0971 102.327 14.5296V17.311C102.287 17.6971 102.34 18.0874 102.482 18.4486C102.625 18.8098 102.852 19.1313 103.145 19.3859C103.708 19.7965 104.39 20.0097 105.087 19.9923C105.416 19.9914 105.744 19.9427 106.06 19.8477C106.386 19.7538 106.69 19.5969 106.956 19.3859C107.23 19.1617 107.451 18.8784 107.601 18.5571C107.781 18.1632 107.867 17.7327 107.851 17.2999V14.5129Z" fill="white"/>
<path d="M136.628 16.7992V17.4557C136.615 17.8596 136.695 18.2611 136.861 18.6294C137.006 18.9368 137.219 19.207 137.484 19.4193C137.748 19.6301 138.053 19.7836 138.38 19.8699C138.727 19.9682 139.087 20.0169 139.448 20.0145C139.94 20.0027 140.43 19.9318 140.905 19.8032C141.546 19.628 142.132 19.2931 142.607 18.8297C142.891 19.1634 143.164 19.4861 143.442 19.792C143.72 20.098 143.998 20.4206 144.243 20.76C143.598 21.425 142.797 21.9184 141.912 22.1952C141.112 22.4327 140.282 22.5527 139.448 22.5512C138.72 22.5582 137.995 22.4608 137.295 22.2619C136.649 22.082 136.042 21.784 135.504 21.383C134.984 20.9873 134.565 20.4747 134.28 19.8866C133.965 19.2294 133.811 18.5068 133.829 17.7783V14.3461C133.819 13.6139 133.957 12.8871 134.236 12.21C134.496 11.5971 134.887 11.0485 135.381 10.6023C135.881 10.1595 136.461 9.81594 137.089 9.58988C137.774 9.3441 138.498 9.22351 139.225 9.23386C139.968 9.22375 140.707 9.33845 141.412 9.57319C142.046 9.78486 142.631 10.1237 143.13 10.5689C143.613 11.0025 143.993 11.5385 144.243 12.1376C144.515 12.8045 144.648 13.5202 144.632 14.2404V16.7992H136.628ZM141.851 14.3961C141.883 14.0294 141.832 13.6601 141.701 13.3161C141.57 12.9721 141.363 12.6623 141.094 12.4102C140.58 11.995 139.936 11.7744 139.275 11.7872C138.605 11.7713 137.951 11.9985 137.434 12.4269C137.166 12.6695 136.957 12.9698 136.822 13.3052C136.687 13.6405 136.63 14.0022 136.655 14.3627V14.7855H141.851V14.3961Z" fill="white"/>
<path d="M146.735 13.9066C146.7 13.286 146.791 12.6647 147.004 12.0804C147.216 11.4962 147.545 10.9611 147.97 10.5077C148.406 10.091 148.921 9.76566 149.485 9.55072C150.048 9.33579 150.649 9.23563 151.252 9.25612C151.798 9.26725 152.343 9.31745 152.882 9.40632C153.594 9.52498 154.288 9.72855 154.951 10.0127V3.64883H157.733V22.362H155.202L154.951 21.077C154.254 21.5307 153.508 21.9039 152.726 22.1896C152.209 22.3727 151.667 22.4741 151.119 22.49C150.543 22.5237 149.966 22.4428 149.422 22.2518C148.877 22.0608 148.376 21.7636 147.948 21.3774C147.163 20.6209 146.78 19.436 146.785 17.8339L146.735 13.9066ZM149.517 17.5947C149.478 17.9156 149.508 18.241 149.604 18.5497C149.699 18.8584 149.859 19.1433 150.073 19.386C150.473 19.7149 150.98 19.8852 151.497 19.8644C151.758 19.8628 152.018 19.8272 152.27 19.7587C152.577 19.6861 152.878 19.5912 153.171 19.475C153.488 19.352 153.798 19.2127 154.1 19.0577C154.391 18.907 154.674 18.7399 154.946 18.5571V12.6383C154.387 12.4163 153.815 12.2305 153.232 12.082C152.734 11.9587 152.222 11.8933 151.708 11.8873C151.139 11.8771 150.585 12.0749 150.151 12.4436C149.915 12.687 149.736 12.9789 149.626 13.2989C149.515 13.6189 149.476 13.9593 149.511 14.296L149.517 17.5947Z" fill="white"/>
<path d="M75.9932 7.1367C76.8411 7.1367 77.5285 6.44931 77.5285 5.60137C77.5285 4.75343 76.8411 4.06604 75.9932 4.06604C75.1452 4.06604 74.4579 4.75343 74.4579 5.60137C74.4579 6.44931 75.1452 7.1367 75.9932 7.1367Z" fill="white"/>
<path d="M40.7474 8.06567L43.8292 13.4004L27.6025 22.7737C27.6025 22.7737 17.6618 28.7759 10.5192 16.3932L15.5758 13.4783C15.5758 13.4783 18.8578 20.7377 24.5486 17.439L40.7474 8.06567Z" fill="white"/>
<path d="M3.08178 16.3598L0 11.0251L16.5715 1.45709C16.5715 1.45709 26.5122 -4.55072 33.6548 7.83204L28.5983 10.7469C28.5983 10.7469 25.3162 3.51532 19.6255 6.78624C13.9348 10.0572 3.08178 16.3598 3.08178 16.3598Z" fill="white"/>
<path d="M22.2511 16.2263C23.0521 16.2263 23.835 15.9888 24.501 15.5438C25.167 15.0988 25.6861 14.4663 25.9926 13.7263C26.2991 12.9863 26.3793 12.1721 26.223 11.3865C26.0668 10.6009 25.6811 9.87936 25.1147 9.31299C24.5483 8.74663 23.8267 8.36094 23.0412 8.20468C22.2556 8.04842 21.4414 8.12862 20.7014 8.43513C19.9614 8.74164 19.3289 9.2607 18.8839 9.92667C18.4389 10.5926 18.2014 11.3756 18.2014 12.1766C18.2014 13.2506 18.6281 14.2807 19.3875 15.0401C20.147 15.7996 21.1771 16.2263 22.2511 16.2263Z" fill="white"/>
<path d="M36.1581 6.24667C36.5762 6.24667 36.9849 6.12269 37.3325 5.89042C37.6801 5.65815 37.9511 5.32801 38.1111 4.94175C38.2711 4.55549 38.3129 4.13047 38.2313 3.72042C38.1498 3.31037 37.9485 2.93372 37.6528 2.63809C37.3572 2.34246 36.9805 2.14113 36.5705 2.05957C36.1605 1.97801 35.7354 2.01987 35.3492 2.17986C34.9629 2.33985 34.6328 2.61079 34.4005 2.95841C34.1682 3.30604 34.0443 3.71473 34.0443 4.13281C34.0443 4.69344 34.267 5.23111 34.6634 5.62753C35.0598 6.02396 35.5975 6.24667 36.1581 6.24667Z" fill="white"/>
<path d="M110.699 17.7505C110.711 18.4599 110.553 19.1618 110.238 19.7976C109.953 20.3777 109.54 20.8856 109.031 21.2829C108.497 21.6878 107.894 21.9914 107.25 22.1785C106.576 22.3812 105.875 22.4825 105.17 22.4789C104.453 22.4821 103.739 22.3809 103.051 22.1785C102.411 21.9947 101.813 21.6907 101.287 21.2829C100.783 20.8834 100.374 20.3759 100.091 19.7976C99.7822 19.1601 99.6278 18.4588 99.6406 17.7505V13.9734C99.6282 13.2621 99.7866 12.5582 100.102 11.9207C100.397 11.3357 100.814 10.8214 101.326 10.4132C101.851 9.9979 102.449 9.68469 103.09 9.48975C103.772 9.27926 104.483 9.17238 105.198 9.17267C105.939 9.16829 106.676 9.27709 107.384 9.49532C108.026 9.68879 108.625 10.0042 109.147 10.4243C109.644 10.8365 110.042 11.3531 110.316 11.9374C110.611 12.5786 110.755 13.2788 110.738 13.9845L110.699 17.7505ZM107.918 14.4629C107.931 14.0279 107.844 13.5957 107.662 13.2001C107.512 12.8866 107.294 12.6109 107.022 12.3935C106.757 12.1825 106.453 12.0257 106.127 11.9318C105.494 11.7371 104.818 11.7371 104.185 11.9318C103.859 12.0244 103.555 12.1814 103.29 12.3935C103.015 12.6178 102.795 12.9011 102.645 13.2224C102.464 13.6162 102.379 14.0467 102.394 14.4796V17.261C102.354 17.6466 102.407 18.0362 102.548 18.3972C102.689 18.7582 102.915 19.0801 103.206 19.3359C103.771 19.7465 104.455 19.9596 105.153 19.9422C105.483 19.9386 105.81 19.8899 106.127 19.7976C106.452 19.7026 106.756 19.5458 107.022 19.3359C107.295 19.1114 107.514 18.828 107.662 18.507C107.845 18.1119 107.933 17.6794 107.918 17.2443V14.4629Z" fill="white"/>
<path d="M136.705 16.7436V17.4C136.696 17.8037 136.776 18.2046 136.939 18.5738C137.087 18.8791 137.3 19.1486 137.562 19.3637C137.829 19.5703 138.133 19.7233 138.458 19.8143C138.806 19.9095 139.165 19.9581 139.526 19.9589C140.02 19.9471 140.511 19.8761 140.989 19.7475C141.628 19.5697 142.213 19.2351 142.691 18.774C142.969 19.1078 143.247 19.4305 143.52 19.7308C143.792 20.0312 144.076 20.3594 144.326 20.7043C143.678 21.3682 142.875 21.8612 141.99 22.1395C141.19 22.3744 140.36 22.4943 139.526 22.4955C138.8 22.4996 138.077 22.4023 137.379 22.2063C136.731 22.0279 136.123 21.7277 135.587 21.3218C135.066 20.9285 134.645 20.4177 134.358 19.831C134.045 19.1729 133.891 18.451 133.907 17.7227V14.2904C133.895 13.5576 134.035 12.8302 134.319 12.1543C134.569 11.5443 134.949 10.9959 135.432 10.5467C135.933 10.1039 136.515 9.7603 137.145 9.53426C137.83 9.28935 138.553 9.16695 139.281 9.17268C140.022 9.16715 140.759 9.28367 141.462 9.51757C142.097 9.72761 142.684 10.0645 143.186 10.5077C143.669 10.9413 144.049 11.4773 144.299 12.0765C144.571 12.7454 144.705 13.4625 144.694 14.1847V16.7436H136.705ZM141.923 14.3405C141.957 13.9729 141.906 13.6025 141.775 13.2575C141.644 12.9124 141.436 12.6018 141.167 12.349C140.651 11.9371 140.008 11.7187 139.348 11.7316C138.679 11.7171 138.027 11.9442 137.512 12.3713C137.243 12.6131 137.033 12.9133 136.898 13.2489C136.763 13.5844 136.707 13.9464 136.733 14.3071V14.7299H141.923V14.3405Z" fill="white"/>
<path d="M146.819 13.8621C146.784 13.2385 146.877 12.6144 147.093 12.028C147.308 11.4417 147.641 10.9054 148.07 10.4521C148.503 10.0324 149.017 9.70506 149.58 9.4899C150.143 9.27474 150.744 9.17628 151.347 9.20049C151.894 9.21228 152.441 9.2606 152.982 9.34512C153.685 9.4606 154.372 9.65852 155.029 9.93478V3.5932H157.811V22.3008H155.285L155.035 21.0214C154.329 21.4769 153.573 21.8502 152.782 22.134C152.264 22.314 151.722 22.4152 151.174 22.4344C150.598 22.4676 150.02 22.3864 149.475 22.1955C148.93 22.0046 148.428 21.7076 147.998 21.3218C147.219 20.5616 146.832 19.3804 146.835 17.7783L146.819 13.8621ZM149.6 17.5502C149.562 17.8702 149.592 18.1947 149.688 18.5024C149.784 18.8101 149.943 19.0941 150.156 19.3359C150.556 19.669 151.066 19.8415 151.586 19.8198C151.845 19.8155 152.103 19.78 152.354 19.7141C152.661 19.6432 152.962 19.5483 153.255 19.4304C153.572 19.3066 153.882 19.1655 154.184 19.0077C154.477 18.8582 154.762 18.691 155.035 18.507V12.5827C154.477 12.3582 153.905 12.1723 153.321 12.0264C152.821 11.9005 152.308 11.8351 151.792 11.8317C151.48 11.8111 151.168 11.861 150.878 11.9777C150.588 12.0943 150.328 12.2748 150.117 12.5057C149.907 12.7365 149.751 13.0119 149.661 13.3112C149.572 13.6106 149.551 13.9262 149.6 14.2348V17.5502Z" fill="white"/>
<path d="M53.8533 22.1562V4.00485H57.6193L62.4256 15.6533L67.2263 4.00485H71.059V22.1562H67.866V10.0405L63.616 19.6863H61.3242L57.0631 10.352V22.1562H53.8533Z" fill="white"/>
<path d="M77.5397 22.1562H74.6136V9.51202H77.5397V22.1562Z" fill="white"/>
<path d="M84.9103 19.6808C83.9591 19.6808 83.4807 19.1912 83.4807 18.2066L83.5085 4.09384H80.5603V18.9854C80.5005 19.9159 80.808 20.8326 81.4169 21.5387C81.7203 21.8442 82.0847 22.0824 82.4863 22.2376C82.8879 22.3929 83.3177 22.4618 83.7477 22.4399C84.2061 22.434 84.6634 22.3949 85.1162 22.3231C85.3818 22.2864 85.644 22.2287 85.9005 22.1506V19.6808H84.9103Z" fill="white"/>
<path d="M91.1573 16.1317H90.7068V18.0676V22.1673H87.7585V4.09384H90.6734V11.7816V14.0067H91.2297C91.4209 14.0072 91.6095 13.962 91.7798 13.875C91.9501 13.7879 92.0971 13.6614 92.2087 13.5061L95.0847 9.51756H98.4223L95.1125 14.0067C94.9748 14.2266 94.8125 14.4301 94.6285 14.6131C94.4741 14.7786 94.3047 14.9295 94.1223 15.0637V15.1193C94.3083 15.2598 94.4748 15.4244 94.6174 15.6088C94.8067 15.8323 94.9725 16.0747 95.1125 16.332L98.8117 22.1618H95.4741L92.1976 16.688C92.0863 16.514 91.9322 16.3715 91.75 16.2741C91.5679 16.1767 91.3638 16.1277 91.1573 16.1317Z" fill="white"/>
<path d="M130.492 10.0572C131.084 10.7906 131.378 11.7201 131.315 12.6605V22.1562H128.439V13.6173C128.465 13.1288 128.347 12.6433 128.1 12.2211C127.958 12.0727 127.784 11.9586 127.591 11.8873C127.398 11.816 127.192 11.7894 126.987 11.8094C126.526 11.8088 126.071 11.9155 125.658 12.1209C124.998 12.48 124.367 12.8911 123.772 13.3503V22.1562H120.946V13.6173C121.009 13.124 120.892 12.6246 120.618 12.21C120.467 12.0645 120.287 11.9533 120.089 11.8842C119.891 11.815 119.681 11.7895 119.472 11.8094C119.021 11.8101 118.577 11.9168 118.176 12.1209C117.526 12.4756 116.9 12.8714 116.301 13.3058V22.1562H113.381V9.512H115.773L115.967 11.37C116.648 10.7078 117.42 10.1459 118.259 9.70114C118.981 9.33767 119.777 9.14721 120.585 9.14486C122.175 9.14486 123.182 9.85133 123.605 11.2643C125.068 9.85133 126.57 9.14486 128.1 9.14486C128.541 9.11551 128.983 9.18185 129.396 9.33932C129.809 9.49678 130.182 9.74166 130.492 10.0572Z" fill="white"/>
<path d="M169.921 10.135C170.638 10.7859 171 11.9318 171 13.5617V22.1562H168.68L168.363 20.2482C167.819 20.8719 167.169 21.3953 166.444 21.7946C165.649 22.2308 164.753 22.4531 163.846 22.4399C162.852 22.4824 161.88 22.1352 161.137 21.472C160.781 21.1226 160.504 20.701 160.325 20.2357C160.145 19.7703 160.068 19.2719 160.097 18.774V17.489C160.07 17.0537 160.138 16.6177 160.297 16.2113C160.455 15.805 160.7 15.438 161.015 15.136C161.743 14.5466 162.667 14.2527 163.602 14.3127H168.052V13.5395C168.055 13.1589 167.985 12.7812 167.846 12.4269C167.781 12.2998 167.691 12.1874 167.581 12.0965C167.471 12.0056 167.343 11.9382 167.206 11.8984C166.774 11.7775 166.325 11.725 165.877 11.7427C164.634 11.7427 162.982 11.8298 160.92 12.0041L160.631 9.77901C161.482 9.60656 162.489 9.45637 163.652 9.33955C164.614 9.22906 165.581 9.16779 166.55 9.15598C168.078 9.15227 169.201 9.47862 169.921 10.135ZM163.396 19.5361C163.557 19.6736 163.743 19.7778 163.945 19.8427C164.146 19.9077 164.359 19.932 164.569 19.9144C165.145 19.8947 165.711 19.7664 166.238 19.5361C166.894 19.2636 167.503 18.888 168.041 18.4236V16.4543H164.269C164.087 16.4414 163.905 16.4697 163.735 16.5372C163.566 16.6046 163.413 16.7094 163.29 16.8437C163.087 17.1471 162.99 17.5086 163.012 17.8729V18.3568C162.994 18.5691 163.019 18.7827 163.085 18.9853C163.151 19.1878 163.256 19.3751 163.396 19.5361Z" fill="white"/>
<path d="M76.0766 7.07551C76.9246 7.07551 77.612 6.38812 77.612 5.54018C77.612 4.69224 76.9246 4.00485 76.0766 4.00485C75.2287 4.00485 74.5413 4.69224 74.5413 5.54018C74.5413 6.38812 75.2287 7.07551 76.0766 7.07551Z" fill="white"/>
<path d="M40.7474 8.06567L43.8292 13.4004L27.6025 22.7737C27.6025 22.7737 17.6618 28.7759 10.5192 16.3932L15.5758 13.4783C15.5758 13.4783 18.8578 20.7377 24.5486 17.439L40.7474 8.06567Z" fill="white"/>
<path d="M3.08178 16.3598L0 11.0251L16.5715 1.45709C16.5715 1.45709 26.5122 -4.55072 33.6548 7.83204L28.6038 10.7469C28.6038 10.7469 25.3162 3.51532 19.6255 6.78624C13.9348 10.0572 3.08178 16.3598 3.08178 16.3598Z" fill="white"/>
<path d="M22.2511 16.2263C23.0521 16.2263 23.835 15.9888 24.501 15.5438C25.167 15.0988 25.6861 14.4663 25.9926 13.7263C26.2991 12.9863 26.3793 12.1721 26.223 11.3865C26.0668 10.6009 25.6811 9.87936 25.1147 9.31299C24.5483 8.74663 23.8267 8.36094 23.0412 8.20468C22.2556 8.04842 21.4414 8.12862 20.7014 8.43513C19.9614 8.74164 19.3289 9.2607 18.8839 9.92667C18.4389 10.5926 18.2014 11.3756 18.2014 12.1766C18.2014 13.2506 18.6281 14.2807 19.3875 15.0401C20.147 15.7996 21.1771 16.2263 22.2511 16.2263Z" fill="#FF931E"/>
<path d="M7.92697 22.5512C8.34639 22.5523 8.7567 22.4289 9.10597 22.1967C9.45524 21.9645 9.72775 21.6339 9.88902 21.2467C10.0503 20.8595 10.0931 20.4332 10.0119 20.0217C9.93076 19.6102 9.72934 19.232 9.43316 18.9351C9.13697 18.6381 8.75934 18.4357 8.34806 18.3535C7.93678 18.2713 7.51035 18.3129 7.12275 18.4731C6.73516 18.6334 6.40382 18.905 6.17069 19.2537C5.93756 19.6024 5.81311 20.0123 5.81311 20.4318C5.81311 20.9929 6.03564 21.5311 6.43191 21.9285C6.82817 22.3258 7.36583 22.5497 7.92697 22.5512Z" fill="white"/>
<path d="M36.1581 6.24667C36.5762 6.24667 36.9849 6.12269 37.3325 5.89042C37.6801 5.65815 37.9511 5.32801 38.1111 4.94175C38.2711 4.55549 38.3129 4.13047 38.2313 3.72042C38.1498 3.31037 37.9485 2.93372 37.6528 2.63809C37.3572 2.34246 36.9805 2.14113 36.5705 2.05957C36.1605 1.97801 35.7354 2.01987 35.3492 2.17986C34.9629 2.33985 34.6328 2.61079 34.4005 2.95841C34.1682 3.30604 34.0443 3.71473 34.0443 4.13281C34.0443 4.69344 34.267 5.23111 34.6634 5.62753C35.0598 6.02396 35.5975 6.24667 36.1581 6.24667Z" fill="white"/>
</svg>
